<svg width="18" height="19" viewBox="0 0 18 19" fill="none" xmlns="http://www.w3.org/2000/svg">
<ellipse cx="8.97752" cy="9.91117" rx="8.89888" ry="9.00888" fill="#FFF3F3"/>
<path d="M12.8451 6.69631H11.7332C11.7184 6.69109 11.7029 6.6877 11.6872 6.68614H10.5034V5.69217C10.5035 5.61747 10.4745 5.54575 10.423 5.4924C10.3714 5.43906 10.3012 5.40828 10.2275 5.40672H7.4277C7.35291 5.40672 7.2812 5.43675 7.22837 5.4903C7.17547 5.54385 7.14574 5.61645 7.14574 5.69216V6.68614H5.96791C5.95225 6.6877 5.93678 6.69109 5.92191 6.69631H4.81004C4.70927 6.69631 4.6162 6.75067 4.56586 6.839C4.5155 6.92732 4.5155 7.03611 4.56586 7.12443C4.61621 7.21275 4.70928 7.26718 4.81004 7.26718H5.7159L6.44786 14.1605C6.4557 14.2307 6.48877 14.2954 6.5408 14.3425C6.59276 14.3896 6.66005 14.4155 6.72981 14.4156H10.9293C10.9983 14.4146 11.0646 14.3881 11.1158 14.3412C11.167 14.2942 11.1995 14.23 11.2072 14.1605L11.9391 7.27725H12.8451C12.9458 7.27725 13.0389 7.22288 13.0892 7.13456C13.1396 7.04624 13.1396 6.93738 13.0892 6.84913C13.0389 6.7608 12.9458 6.70637 12.8451 6.70637L12.8451 6.69631ZM7.71573 5.9776H9.93941V6.68614H7.71573V5.9776ZM10.6734 13.8406H6.98176L6.28187 7.27732H11.3732L10.6734 13.8406Z" fill="#E41D1D"/>
<path d="M8.82771 13.1727C8.9025 13.1727 8.97421 13.1426 9.02711 13.0891C9.08001 13.0355 9.10967 12.9629 9.10967 12.8872V8.23097C9.10967 8.12895 9.05597 8.03473 8.96873 7.98376C8.88148 7.93272 8.77396 7.93272 8.68671 7.98376C8.59947 8.03473 8.54576 8.12895 8.54576 8.23097V12.8872C8.54576 12.9629 8.57543 13.0355 8.62832 13.0891C8.68122 13.1426 8.75293 13.1727 8.82772 13.1727H8.82771Z" fill="#E41D1D"/>
<path d="M7.71778 13.1706H7.72976C7.80422 13.1674 7.87439 13.1346 7.92502 13.0792C7.97557 13.0238 8.00248 12.9504 7.99974 12.875L7.82974 8.21877L7.8298 8.2187C7.82826 8.14245 7.79606 8.07005 7.74055 8.0184C7.68498 7.96682 7.61106 7.94045 7.5358 7.9454C7.46135 7.94858 7.39118 7.98146 7.34062 8.03684C7.29 8.09222 7.26315 8.16563 7.26583 8.24101L7.43583 12.8973C7.43938 12.9707 7.47058 13.0399 7.52308 13.0908C7.5755 13.1415 7.64521 13.1701 7.71778 13.1706L7.71778 13.1706Z" fill="#E41D1D"/>
<path d="M9.92735 13.1706H9.93732C10.0116 13.1723 10.0836 13.1443 10.1379 13.0929C10.192 13.0414 10.2242 12.9704 10.2273 12.8952L10.3973 8.23898H10.3972C10.4 8.1636 10.3731 8.09019 10.3225 8.03481C10.2719 7.97943 10.2017 7.94655 10.1273 7.94337C10.0511 7.93544 9.97521 7.96031 9.9181 8.01196C9.86099 8.06355 9.82804 8.13716 9.82731 8.21471L9.6553 12.871H9.65537C9.65155 12.9473 9.6782 13.0221 9.72935 13.0784C9.78044 13.1348 9.85181 13.168 9.92734 13.1706L9.92735 13.1706Z" fill="#E41D1D"/>
</svg>
