<svg width="18" height="19" viewBox="0 0 18 19" fill="none" xmlns="http://www.w3.org/2000/svg">
<path d="M8.97752 18.183C6.61746 18.183 4.35379 17.2338 2.68507 15.5443C1.01625 13.8547 0.0786438 11.5633 0.0786438 9.17408C0.0786438 6.78485 1.01625 4.4932 2.68507 2.80385C4.35403 1.1144 6.61746 0.165205 8.97752 0.165205C11.3376 0.165205 13.6012 1.1144 15.27 2.80385C16.9388 4.49344 17.8764 6.78485 17.8764 9.17408C17.8736 11.5625 16.9351 13.8525 15.2668 15.5412C13.5986 17.23 11.3365 18.1801 8.97752 18.183ZM12.4093 6.85702V6.85688C12.5653 6.70428 12.6543 6.49465 12.6562 6.275C12.6581 6.05535 12.5727 5.84408 12.4193 5.68873C12.2658 5.53338 12.0571 5.44701 11.8402 5.44893C11.6232 5.45085 11.4161 5.54093 11.2654 5.69888L8.97752 8.01587L6.68965 5.69888C6.4842 5.49801 6.18935 5.42165 5.91375 5.49815C5.63828 5.57466 5.42308 5.79252 5.3475 6.0714C5.27193 6.35041 5.34736 6.64889 5.54578 6.85689L7.83365 9.17389L5.54578 11.4909C5.38976 11.6435 5.30078 11.8531 5.29888 12.0728C5.29699 12.2924 5.38231 12.5037 5.53575 12.659C5.6892 12.8144 5.89789 12.9008 6.11486 12.8988C6.33183 12.8969 6.53889 12.8068 6.68964 12.6489L8.97751 10.3319L11.2654 12.6489C11.4161 12.8068 11.6232 12.8969 11.8402 12.8988C12.0571 12.9008 12.2658 12.8144 12.4193 12.659C12.5727 12.5037 12.658 12.2924 12.6561 12.0728C12.6542 11.8531 12.5653 11.6435 12.4092 11.4909L10.1214 9.17389L12.4093 6.85702Z" fill="#E6E6E6"/>
</svg>
