<svg width="77" height="68" viewBox="0 0 77 68" fill="none" xmlns="http://www.w3.org/2000/svg">
<path d="M39.5377 15.8141C39.3832 16.3375 39.6778 16.8897 40.1988 17.0467L40.3042 17.0784L40.3088 17.073C40.7973 17.1612 41.2797 16.865 41.4223 16.3785C42.7257 11.9541 46.8312 8.86495 51.4035 8.86495C51.948 8.86495 52.3867 8.41925 52.3867 7.87339C52.3867 7.3275 51.948 6.88183 51.4035 6.88183C45.7792 6.88183 41.0545 10.6647 39.5377 15.8141ZM39.5377 15.8141L39.7 15.862M39.5377 15.8141C39.5377 15.8141 39.5377 15.8142 39.5376 15.8142L39.7 15.862M39.7 15.862C39.5715 16.2972 39.8169 16.7548 40.2477 16.8846L39.7 15.862Z" fill="url(#paint0_linear_38_2284)" stroke="#F9FFF9" stroke-width="0.338521"/>
<path d="M62.7981 48.166H57.9145C57.4651 48.166 57.1005 47.7977 57.1005 47.3437C57.1005 46.8896 57.4651 46.5214 57.9145 46.5214H62.7981C69.53 46.5214 75.0073 40.9879 75.0073 34.187C75.0073 27.3861 69.53 21.8526 62.7981 21.8526H62.6807C62.4446 21.8526 62.2202 21.7493 62.0655 21.5689C61.9109 21.3886 61.8411 21.1496 61.8749 20.9135C61.9475 20.4013 61.9842 19.8868 61.9842 19.3858C61.9842 13.4917 57.237 8.69592 51.4028 8.69592C49.133 8.69592 46.9685 9.41249 45.1429 10.7687C44.7417 11.0665 44.172 10.9343 43.94 10.4885C38.7697 0.542338 25.2655 -0.79333 18.2642 7.85896C15.3149 11.504 14.156 16.2457 15.0846 20.8671C15.1869 21.3775 14.8003 21.8533 14.2869 21.8533H13.9608C7.2289 21.8533 1.75157 27.3867 1.75157 34.1876C1.75157 40.9885 7.2289 46.522 13.9608 46.522H18.8444C19.2938 46.522 19.6583 46.8902 19.6583 47.3443C19.6583 47.7983 19.2938 48.1666 18.8444 48.1666H13.9608C6.33112 48.1666 0.123596 41.8954 0.123596 34.1876C0.123596 26.6959 5.98746 20.5616 13.3218 20.2233C12.6329 15.4287 13.9503 10.5924 17.0037 6.81818C24.4996 -2.44608 38.8648 -1.40768 44.9374 8.92265C46.8746 7.69567 49.0914 7.052 51.4025 7.052C58.4711 7.052 64.0722 13.1299 63.5821 20.2309C70.8489 20.6427 76.6349 26.7446 76.6349 34.187C76.6349 41.8954 70.4274 48.166 62.7977 48.166L62.7981 48.166Z" fill="url(#paint1_linear_38_2284)"/>
<path d="M17.7521 46.8793C17.7521 58.3067 26.9548 67.6061 38.2703 67.6061C49.5859 67.6061 58.7885 58.3065 58.7885 46.8793C58.7885 35.452 49.5859 26.1525 38.2703 26.1525C26.9547 26.1525 17.7521 35.4521 17.7521 46.8793ZM19.7189 46.8793C19.7189 36.5429 28.0428 28.136 38.2703 28.136C48.4976 28.136 56.8217 36.5428 56.8217 46.8793C56.8217 57.2157 48.4976 65.6226 38.2703 65.6226C28.043 65.6226 19.7189 57.2158 19.7189 46.8793Z" fill="url(#paint2_linear_38_2284)" stroke="#F9FFF9" stroke-width="0.338521"/>
<path d="M37.8771 55.155C37.8771 55.5793 38.2182 55.9263 38.6423 55.9263C39.0663 55.9263 39.4075 55.5797 39.4075 55.155V39.5026C39.4075 39.0783 39.0664 38.7313 38.6423 38.7313C38.2182 38.7313 37.8771 39.0783 37.8771 39.5026V55.155Z" fill="url(#paint3_linear_38_2284)" stroke="url(#paint4_linear_38_2284)" stroke-width="0.338521"/>
<path d="M38.6422 40.5959L42.8677 44.8648C43.0168 45.0154 43.2134 45.0912 43.4094 45.0913L38.6422 40.5959ZM38.6422 40.5959L34.4168 44.8646C34.1181 45.167 33.6323 45.1668 33.3333 44.8648C33.0352 44.5636 33.0352 44.0764 33.3333 43.7752L38.1004 38.9593C38.1004 38.9593 38.1004 38.9592 38.1004 38.9592C38.3992 38.6569 38.8849 38.6571 39.1839 38.9592L43.9511 43.7752C44.2492 44.0764 44.2492 44.5636 43.9511 44.8647C43.8017 45.016 43.605 45.0912 43.4094 45.0913L38.6422 40.5959Z" fill="url(#paint5_linear_38_2284)" stroke="url(#paint6_linear_38_2284)" stroke-width="0.338521"/>
<defs>
<linearGradient id="paint0_linear_38_2284" x1="44.8884" y1="11.1195" x2="53.0943" y2="17.213" gradientUnits="userSpaceOnUse">
<stop stop-color="#DC2D64"/>
<stop offset="1" stop-color="#E71D36"/>
</linearGradient>
<linearGradient id="paint1_linear_38_2284" x1="31.9587" y1="20.1375" x2="73.298" y2="58.8561" gradientUnits="userSpaceOnUse">
<stop stop-color="#DC2D64"/>
<stop offset="1" stop-color="#E71D36"/>
</linearGradient>
<linearGradient id="paint2_linear_38_2284" x1="34.8551" y1="43.2727" x2="65.7998" y2="61.1553" gradientUnits="userSpaceOnUse">
<stop stop-color="#DC2D64"/>
<stop offset="1" stop-color="#E71D36"/>
</linearGradient>
<linearGradient id="paint3_linear_38_2284" x1="38.5423" y1="45.8502" x2="39.749" y2="45.9" gradientUnits="userSpaceOnUse">
<stop stop-color="#DC2D64"/>
<stop offset="1" stop-color="#E71D36"/>
</linearGradient>
<linearGradient id="paint4_linear_38_2284" x1="38.5423" y1="45.8502" x2="39.749" y2="45.9" gradientUnits="userSpaceOnUse">
<stop stop-color="#DC2D64"/>
<stop offset="1" stop-color="#E71D36"/>
</linearGradient>
<linearGradient id="paint5_linear_38_2284" x1="37.7421" y1="41.3839" x2="42.9676" y2="46.8194" gradientUnits="userSpaceOnUse">
<stop stop-color="#DC2D64"/>
<stop offset="1" stop-color="#E71D36"/>
</linearGradient>
<linearGradient id="paint6_linear_38_2284" x1="37.7421" y1="41.3839" x2="42.9676" y2="46.8194" gradientUnits="userSpaceOnUse">
<stop stop-color="#DC2D64"/>
<stop offset="1" stop-color="#E71D36"/>
</linearGradient>
</defs>
</svg>
